<svg id="Capa_1" data-name="Capa 1" xmlns="http://www.w3.org/2000/svg" viewBox="0 0 51 34.38"><title>e-learn</title><path d="M35.83,37A5.18,5.18,0,0,0,41,31.83v-8L52.32,34.64a2.7,2.7,0,0,0,1.92.81A2.77,2.77,0,0,0,57,32.68V9.18a2.73,2.73,0,0,0-1.67-2.54,2.68,2.68,0,0,0-2.95.53L41,17.67V8.94A5,5,0,0,0,36.06,4H10.94A5,5,0,0,0,6,8.94V32.21A4.8,4.8,0,0,0,10.79,37Zm-14.7,1.38M39,31.83A3.17,3.17,0,0,1,35.83,35h-25A2.79,2.79,0,0,1,8,32.21V8.94A2.94,2.94,0,0,1,10.94,6H36.06A2.94,2.94,0,0,1,39,8.94Zm16,.85a.75.75,0,0,1-.47.71.7.7,0,0,1-.8-.17L41.22,21.27a.8.8,0,0,1-.22-.55.75.75,0,0,1,.23-.54L53.75,8.62a.68.68,0,0,1,.49-.2.71.71,0,0,1,.3.06.74.74,0,0,1,.46.7Z" transform="translate(-6 -4)"/><path d="M14.87,18.42l.24.1V26.6h1.36V19l1.35.52v5a.68.68,0,0,0,.44.64l5.42,2a.74.74,0,0,0,.48,0l5.42-2a.68.68,0,0,0,.43-.64v-5l3-1.14a.68.68,0,0,0,0-1.26l-8.81-3.39a.69.69,0,0,0-.49,0l-8.8,3.39a.68.68,0,0,0,0,1.26ZM28.66,24.1l-4.74,1.77L19.18,24.1v-4l4.5,1.73a.64.64,0,0,0,.24,0,.67.67,0,0,0,.24,0l4.5-1.73Zm-4.74-9,6.92,2.66-6.92,2.66L17,17.79Z" transform="translate(-6 -4)"/></svg>