<?xml version="1.0" encoding="iso-8859-1"?>
<!-- Generator: Adobe Illustrator 19.0.0, SVG Export Plug-In . SVG Version: 6.00 Build 0)  -->
<svg xmlns="http://www.w3.org/2000/svg" xmlns:xlink="http://www.w3.org/1999/xlink" version="1.1" id="Capa_1" x="0px" y="0px" viewBox="0 0 512 512" style="enable-background:new 0 0 512 512;" xml:space="preserve" width="512px" height="512px">
<g>
	<g>
		<path d="M327.079,148.784l-64.491-111.7c-1.359-2.353-3.87-3.804-6.588-3.804c-2.718,0-5.229,1.449-6.588,3.804l-64.492,111.7    c-2.102,3.638-0.854,8.291,2.784,10.392c3.636,2.101,8.291,0.854,10.392-2.784L256,56.103l57.903,100.288    c1.41,2.441,3.966,3.805,6.595,3.805c1.29,0,2.6-0.329,3.797-1.02C327.933,157.075,329.18,152.422,327.079,148.784z" fill="#1b083e"/>
	</g>
</g>
<g>
	<g>
		<path d="M510.981,467.308l-71.528-123.894c-2.1-3.638-6.756-4.885-10.392-2.784c-3.638,2.101-4.885,6.754-2.784,10.392    l64.94,112.483H161.545c-4.202,0-7.608,3.406-7.608,7.608s3.405,7.608,7.608,7.608h342.847c2.718,0,5.229-1.451,6.588-3.804    C512.34,472.562,512.34,469.662,510.981,467.308z" fill="#1b083e"/>
	</g>
</g>
<g>
	<g>
		<path d="M136.186,463.504H20.784l64.944-112.491c2.101-3.638,0.854-8.291-2.784-10.392c-3.641-2.102-8.292-0.854-10.392,2.784    L1.019,467.308c-1.359,2.354-1.359,5.254,0,7.608c1.359,2.353,3.87,3.804,6.588,3.804h128.578c4.202,0,7.608-3.406,7.608-7.608    S140.387,463.504,136.186,463.504z" fill="#1b083e"/>
	</g>
</g>
<g>
	<g>
		<path d="M470.543,265.335c-19.769-31.254-49.932-57.603-87.225-76.201c-38.099-18.998-82.126-29.04-127.322-29.04    s-89.225,10.042-127.322,29.04c-37.293,18.598-67.456,44.947-87.225,76.201c-1.572,2.483-1.572,5.65,0,8.134    c19.769,31.253,49.932,57.603,87.225,76.2c38.099,18.998,82.126,29.04,127.322,29.04s89.225-10.042,127.322-29.04    c37.294-18.597,67.457-44.947,87.225-76.2C472.115,270.986,472.115,267.819,470.543,265.335z M135.464,202.751    c36-17.952,77.679-27.441,120.532-27.441c42.853,0,84.532,9.489,120.532,27.441c19.926,9.937,37.62,22.212,52.556,36.303    c-44.362-20.256-106.33-32.091-173.089-32.091c-66.759,0-128.726,11.834-173.089,32.091    C97.844,224.963,115.538,212.687,135.464,202.751z M376.528,336.052c-36,17.952-77.679,27.441-120.532,27.441    c-42.853,0-84.532-9.489-120.532-27.441c-32.513-16.213-59.119-38.626-77.39-65.066c24.305-18.292,62.504-32.516,107.316-40.775    c-1.506,6.688-2.273,13.542-2.273,20.494c0,51.278,41.722,92.995,93.005,92.995c26.14,0,51.222-11.098,68.819-30.45    c2.827-3.109,2.599-7.92-0.51-10.747c-3.109-2.827-7.922-2.6-10.747,0.51c-14.719,16.187-35.699,25.47-57.562,25.47    c-42.894,0-77.79-34.891-77.79-77.78c0-7.948,1.2-15.737,3.542-23.219c23.545-3.454,48.571-5.307,74.123-5.307    c25.643,0,50.756,1.867,74.375,5.346c2.335,7.462,3.531,15.236,3.531,23.182c0,12.023-2.667,23.546-7.925,34.249    c-1.852,3.771-0.298,8.33,3.473,10.183c1.079,0.53,2.222,0.781,3.349,0.781c2.81,0,5.512-1.563,6.834-4.254    c6.293-12.809,9.485-26.589,9.485-40.959c0-6.941-0.764-13.78-2.263-20.447c44.703,8.266,82.806,22.472,107.065,40.729    C435.647,297.426,409.041,319.839,376.528,336.052z" fill="#1b083e"/>
	</g>
</g>
<g>
	<g>
		<path d="M474.404,55.526c-2.972-2.971-7.788-2.971-10.759,0l-77.593,77.593c-2.971,2.971-2.971,7.788,0,10.758    c1.486,1.486,3.434,2.229,5.379,2.229c1.947,0,3.894-0.742,5.38-2.229l77.593-77.593    C477.375,63.313,477.375,58.496,474.404,55.526z" fill="#1b083e"/>
	</g>
</g>
<g>
	<g>
		<path d="M472.068,164.363h-68.465c-4.202,0-7.608,3.406-7.608,7.608s3.405,7.608,7.608,7.608h68.465    c4.202,0,7.608-3.406,7.608-7.608S476.271,164.363,472.068,164.363z" fill="#1b083e"/>
	</g>
</g>
<g>
	<g>
		<path d="M367.088,47.212c-4.202,0-7.608,3.406-7.608,7.608v57.815c0,4.201,3.406,7.608,7.608,7.608    c4.202,0,7.608-3.406,7.608-7.608V54.819C374.695,50.618,371.29,47.212,367.088,47.212z" fill="#1b083e"/>
	</g>
</g>
<g>
	<g>
		<path d="M125.949,133.119L48.354,55.526c-2.972-2.971-7.788-2.971-10.759,0s-2.971,7.788,0,10.758l77.594,77.593    c1.486,1.485,3.434,2.229,5.38,2.229s3.894-0.742,5.38-2.229C128.92,140.906,128.92,136.089,125.949,133.119z" fill="#1b083e"/>
	</g>
</g>
<g>
	<g>
		<path d="M108.396,164.363H39.932c-4.202,0-7.608,3.406-7.608,7.608s3.406,7.608,7.608,7.608h68.464    c4.202,0,7.608-3.406,7.608-7.608S112.598,164.363,108.396,164.363z" fill="#1b083e"/>
	</g>
</g>
<g>
	<g>
		<path d="M144.91,47.212c-4.202,0-7.608,3.406-7.608,7.608v57.815c0,4.201,3.406,7.608,7.608,7.608    c4.202,0,7.608-3.406,7.608-7.608V54.819C152.518,50.618,149.113,47.212,144.91,47.212z" fill="#1b083e"/>
	</g>
</g>
<g>
</g>
<g>
</g>
<g>
</g>
<g>
</g>
<g>
</g>
<g>
</g>
<g>
</g>
<g>
</g>
<g>
</g>
<g>
</g>
<g>
</g>
<g>
</g>
<g>
</g>
<g>
</g>
<g>
</g>
</svg>
