<svg id="Capa_1" data-name="Capa 1" xmlns="http://www.w3.org/2000/svg" viewBox="0 0 57.97 48"><title>latest</title><path d="M10.41,1.71A1,1,0,0,0,9,.29a29,29,0,0,0,0,41,1,1,0,0,0,.71.3,1,1,0,0,0,.71-.3,1,1,0,0,0,0-1.41A27,27,0,0,1,10.41,1.71Z" transform="translate(-0.51 0)"/><path d="M50,.29a1,1,0,1,0-1.42,1.42,27,27,0,0,1,0,38.18,1,1,0,0,0,.71,1.71,1,1,0,0,0,.71-.3,29,29,0,0,0,0-41Z" transform="translate(-0.51 0)"/><path d="M14.65,6a1,1,0,0,0,0-1.42,1,1,0,0,0-1.41,0,23,23,0,0,0,0,32.53,1,1,0,0,0,1.41,0,1,1,0,0,0,0-1.41A21,21,0,0,1,14.65,6Z" transform="translate(-0.51 0)"/><path d="M45.76,4.53a1,1,0,0,0-1.41,0,1,1,0,0,0,0,1.42,21,21,0,0,1,0,29.7,1,1,0,0,0,0,1.41,1,1,0,0,0,1.41,0A23,23,0,0,0,45.76,4.53Z" transform="translate(-0.51 0)"/><path d="M18.89,8.78a1,1,0,0,0-1.41,0,17,17,0,0,0,0,24,1,1,0,0,0,1.41,0,1,1,0,0,0,0-1.41,15,15,0,0,1,0-21.22A1,1,0,0,0,18.89,8.78Z" transform="translate(-0.51 0)"/><path d="M41.52,8.78a1,1,0,1,0-1.41,1.41,15,15,0,0,1,0,21.21,1,1,0,0,0,1.41,1.42,17,17,0,0,0,0-24Z" transform="translate(-0.51 0)"/><path d="M29.5,14a7,7,0,0,0-1,13.92V47a1,1,0,0,0,2,0V27.92A7,7,0,0,0,29.5,14Zm0,12a5,5,0,1,1,5-5A5,5,0,0,1,29.5,26Z" transform="translate(-0.51 0)"/></svg>