<?xml version="1.0" encoding="iso-8859-1"?>
<!-- Generator: Adobe Illustrator 19.0.0, SVG Export Plug-In . SVG Version: 6.00 Build 0)  -->
<svg xmlns="http://www.w3.org/2000/svg" xmlns:xlink="http://www.w3.org/1999/xlink" version="1.1" id="Capa_1" x="0px" y="0px" viewBox="0 0 512 512" style="enable-background:new 0 0 512 512;" xml:space="preserve" width="512px" height="512px">
<g>
	<g>
		<path d="M418.88,376.043l-54.869-19.093c-4.011-1.387-8.469-0.277-11.371,2.859c-26.901,29.355-61.227,45.525-96.64,45.525    s-69.739-16.171-96.64-45.547c-2.901-3.136-7.36-4.224-11.371-2.859L93.12,376.021C35.669,395.989,0,444.011,0,501.333    C0,507.221,4.779,512,10.667,512h490.667c5.888,0,10.667-4.779,10.667-10.667C512,444.011,476.331,396.011,418.88,376.043z     M21.845,490.667c4.117-43.221,33.323-78.848,78.272-94.485l48.384-16.832c30.251,30.571,68.181,47.317,107.499,47.317    s77.248-16.747,107.499-47.317l48.384,16.832c44.949,15.637,74.155,51.264,78.272,94.485H21.845z" fill="#1b083e"/>
	</g>
</g>
<g>
	<g>
		<path d="M224,213.333h-21.333c-5.888,0-10.667,4.779-10.667,10.667s4.779,10.667,10.667,10.667H224    c5.888,0,10.667-4.779,10.667-10.667S229.888,213.333,224,213.333z" fill="#1b083e"/>
	</g>
</g>
<g>
	<g>
		<path d="M309.333,213.333H288c-5.888,0-10.667,4.779-10.667,10.667s4.779,10.667,10.667,10.667h21.333    c5.888,0,10.667-4.779,10.667-10.667S315.221,213.333,309.333,213.333z" fill="#1b083e"/>
	</g>
</g>
<g>
	<g>
		<path d="M383.936,173.44c0.043-0.917,0.064-1.856,0.064-2.773c0-70.592-57.408-128-128-128s-128,57.408-128,128    c0,0.917,0.021,1.856,0.064,2.773c-12.715,6.955-21.397,26.389-21.397,50.56c0,29.675,13.099,52.224,30.677,53.291    C156.736,341.547,203.435,384,256,384s99.264-42.453,118.656-106.709c17.579-1.067,30.677-23.616,30.677-53.291    C405.333,199.829,396.651,180.395,383.936,173.44z M372.672,255.531c-2.901-1.771-6.464-2.112-9.643-0.811    c-3.136,1.28-5.483,3.989-6.315,7.296C341.781,322.219,301.312,362.667,256,362.667s-85.781-40.448-100.715-100.651    c-0.832-3.307-3.499-5.76-6.656-7.061c-1.173-0.491-2.453-0.704-3.755-0.704c-2.176,0-4.395,0.619-6.208,1.749    C136,256,128,244.651,128,224c0-19.563,7.189-30.763,10.197-31.915c0.107,0.021,0.235,0.043,0.32,0.043    c3.179,0.256,6.357-0.811,8.619-3.072c2.261-2.283,3.392-5.461,3.051-8.64l-0.299-2.667c-0.256-2.347-0.555-4.672-0.555-7.083    C149.333,111.851,197.184,64,256,64s106.667,47.851,106.667,106.667c0,2.411-0.299,4.736-0.555,7.061l-0.299,2.667    c-0.32,3.2,0.789,6.379,3.051,8.64c2.261,2.283,5.419,3.371,8.619,3.093c0.085-0.021,0.213-0.021,0.32-0.043    C376.811,193.237,384,204.437,384,224C384,244.651,376.171,255.659,372.672,255.531z" fill="#1b083e"/>
	</g>
</g>
<g>
	<g>
		<path d="M202.667,0c-32.491,0-91.883,22.187-116.16,69.824c-3.669,7.147-13.141,25.749-3.84,36.907    c-19.008,16.128-40,41.429-40,74.603c0,15.765,1.408,32.277,11.029,38.805c-7.531,21.483-8.981,50.155,12.992,74.944    c5.803,6.528,19.392,21.803,32.597,15.125c4.309-2.197,7.211-6.165,8.747-11.883C120.341,309.525,137.792,320,160,320    c5.888,0,10.667-4.779,10.667-10.667s-4.779-10.667-10.667-10.667c-33.877,0-54.421-36.736-54.635-37.099    c-2.539-4.651-8.128-6.699-13.099-4.864c-4.971,1.877-7.808,7.083-6.677,12.267c1.301,5.888,2.091,12.459,2.261,17.387    c-1.429-1.344-3.157-3.115-5.205-5.419c-25.877-29.227-5.013-63.68-0.277-70.677c0.469-0.64,0.875-1.216,1.152-1.664    c3.221-4.821,2.005-11.307-2.709-14.635c-4.715-3.349-11.2-2.304-14.677,2.304c-0.363,0.469-0.704,0.96-1.067,1.472    C64.491,194.389,64,189.227,64,181.333c0-42.581,49.301-71.04,57.088-75.264c0.469-0.235,0.896-0.469,1.323-0.683    c5.12-2.773,7.083-9.131,4.373-14.315c-2.667-5.184-9.003-7.189-14.229-4.629c-0.192,0.107-0.661,0.341-1.387,0.725    c-3.499,1.771-7.552,3.285-10.56,4.032c0.683-2.389,2.048-6.144,4.885-11.691c20.971-41.109,73.621-58.176,97.173-58.176    c21.504,0,38.997,3.499,44.373,5.781C248.917,30.059,252.245,32,256,32c5.888,0,10.667-4.779,10.667-10.667    C266.667,2.091,221.909,0,202.667,0z" fill="#1b083e"/>
	</g>
</g>
<g>
	<g>
		<path d="M469.333,181.333c0-33.173-20.992-58.475-40-74.603c9.301-11.157-0.192-29.739-3.84-36.907    C401.216,22.187,341.824,0,309.333,0c-19.243,0-64,2.091-64,21.333C245.333,27.221,250.112,32,256,32    c3.755,0,7.083-1.941,8.96-4.885c5.376-2.283,22.869-5.781,44.373-5.781c23.552,0,76.203,17.067,97.152,58.197    c2.837,5.547,4.203,9.28,4.885,11.691c-3.008-0.747-7.04-2.261-10.56-4.032c-0.725-0.384-1.195-0.64-1.387-0.725    c-5.205-2.581-11.541-0.555-14.229,4.629c-2.688,5.163-0.725,11.52,4.395,14.293c0.427,0.213,0.875,0.448,1.323,0.683    c7.787,4.224,57.088,32.683,57.088,75.264c0,7.893-0.491,13.056-1.067,16.384c-0.363-0.491-0.704-0.981-1.067-1.451    c-3.477-4.608-9.984-5.653-14.699-2.304s-5.909,9.835-2.709,14.635c0.363,0.512,0.789,1.152,1.344,1.877    c4.992,7.36,25.408,41.28-0.448,70.464c-2.069,2.304-3.776,4.075-5.205,5.419c0.171-4.928,0.96-11.499,2.261-17.387    c1.131-5.184-1.707-10.411-6.677-12.267c-4.928-1.835-10.539,0.213-13.099,4.864c-0.213,0.363-20.757,37.099-54.635,37.099    c-5.888,0-10.667,4.779-10.667,10.667S346.112,320,352,320c22.208,0,39.659-10.475,51.968-21.696    c1.536,5.717,4.437,9.685,8.747,11.883c13.163,6.72,26.795-8.576,32.597-15.125c21.973-24.789,20.523-53.461,12.992-74.944    C467.925,213.611,469.333,197.099,469.333,181.333z" fill="#1b083e"/>
	</g>
</g>
<g>
	<g>
		<path d="M317.888,281.664c-1.835-2.496-18.624-24.277-40.64-25.173c-7.723-0.469-18.795,1.835-29.291,13.824    c-3.883,4.437-3.435,11.179,1.003,15.061c4.416,3.883,11.157,3.435,15.061-1.003c5.952-6.805,10.709-6.549,12.331-6.571    c10.069,0.363,21.291,12.395,24.427,16.576c2.091,2.795,5.312,4.267,8.555,4.267c2.219,0,4.459-0.683,6.357-2.091    C320.405,293.035,321.408,286.379,317.888,281.664z" fill="#1b083e"/>
	</g>
</g>
<g>
	<g>
		<path d="M264.043,270.293c-10.496-11.989-21.632-14.272-29.291-13.824c-22.016,0.896-38.805,22.699-40.64,25.173    c-3.499,4.715-2.517,11.413,2.219,14.912c1.899,1.429,4.117,2.112,6.336,2.112c3.243,0,6.485-1.493,8.555-4.331    c3.093-4.16,14.208-16.128,24.384-16.555c1.536,0.021,6.421-0.235,12.373,6.571c3.883,4.437,10.624,4.864,15.061,1.003    C267.477,281.451,267.925,274.731,264.043,270.293z" fill="#1b083e"/>
	</g>
</g>
<g>
	<g>
		<path d="M288,277.333h-64c-5.888,0-10.667,4.779-10.667,10.667c0,28.907,19.541,53.333,42.667,53.333s42.667-24.427,42.667-53.333    C298.667,282.112,293.888,277.333,288,277.333z M256,320c-7.168,0-16.619-7.893-20.032-21.333h40.064    C272.64,312.107,263.168,320,256,320z" fill="#1b083e"/>
	</g>
</g>
<g>
	<g>
		<path d="M202.667,170.667c-13.803,0-26.347,11.371-28.715,13.632c-4.245,4.096-4.395,10.837-0.32,15.083    c2.091,2.197,4.907,3.285,7.701,3.285c2.667,0,5.333-0.981,7.381-2.965c2.709-2.603,9.813-7.701,13.952-7.701    c5.888,0,10.667-4.779,10.667-10.667S208.555,170.667,202.667,170.667z" fill="#1b083e"/>
	</g>
</g>
<g>
	<g>
		<path d="M338.048,184.299c-2.368-2.261-14.912-13.632-28.715-13.632c-5.888,0-10.667,4.779-10.667,10.667S303.445,192,309.333,192    c3.797,0,10.56,4.48,13.973,7.723c2.069,1.963,4.715,2.923,7.36,2.923c2.795,0,5.611-1.109,7.701-3.307    C342.421,195.093,342.293,188.373,338.048,184.299z" fill="#1b083e"/>
	</g>
</g>
<g>
	<g>
		<path d="M224,405.333c-5.888,0-10.667,4.779-10.667,10.667v85.333c0,5.888,4.779,10.667,10.667,10.667s10.667-4.779,10.667-10.667    V416C234.667,410.112,229.888,405.333,224,405.333z" fill="#1b083e"/>
	</g>
</g>
<g>
	<g>
		<path d="M416,448h-64c-5.888,0-10.667,4.779-10.667,10.667v42.667c0,5.888,4.779,10.667,10.667,10.667    c5.888,0,10.667-4.779,10.667-10.667v-32h42.667v32c0,5.888,4.779,10.667,10.667,10.667c5.888,0,10.667-4.779,10.667-10.667    v-42.667C426.667,452.779,421.888,448,416,448z" fill="#1b083e"/>
	</g>
</g>
<g>
</g>
<g>
</g>
<g>
</g>
<g>
</g>
<g>
</g>
<g>
</g>
<g>
</g>
<g>
</g>
<g>
</g>
<g>
</g>
<g>
</g>
<g>
</g>
<g>
</g>
<g>
</g>
<g>
</g>
</svg>
